<svg xmlns="http://www.w3.org/2000/svg" xmlns:xlink="http://www.w3.org/1999/xlink" viewBox="0 0 39.09 38.13"><defs><style>.cls-1{isolation:isolate;}.cls-2{mix-blend-mode:color-burn;fill:url(#radial-gradient);}.cls-3{fill:#fff;}.cls-4{fill:url(#linear-gradient);}.cls-5{fill:url(#linear-gradient-2);}.cls-6{fill:#fab712;}</style><radialGradient id="radial-gradient" cx="-77.63" cy="73.67" r="32.2" gradientTransform="translate(63.02 -21.84) scale(0.57 0.57)" gradientUnits="userSpaceOnUse"><stop offset="0.53" stop-color="#386eb5"/><stop offset="0.6" stop-color="#6d94c9"/><stop offset="0.67" stop-color="#99b5d9"/><stop offset="0.73" stop-color="#bed0e7"/><stop offset="0.8" stop-color="#dae4f1"/><stop offset="0.87" stop-color="#eff3f9"/><stop offset="0.93" stop-color="#fbfcfd"/><stop offset="1" stop-color="#fff"/></radialGradient><linearGradient id="linear-gradient" x1="5.81" y1="31.51" x2="28.58" y2="2.52" gradientUnits="userSpaceOnUse"><stop offset="0" stop-color="#ed6f1e"/><stop offset="1" stop-color="#ffd504"/></linearGradient><linearGradient id="linear-gradient-2" x1="11.16" y1="35.52" x2="33.93" y2="6.53" xlink:href="#linear-gradient"/></defs><g class="cls-1"><g id="Capa_2" data-name="Capa 2"><g id="Capa_1-2" data-name="Capa 1"><ellipse class="cls-2" cx="18.47" cy="19.89" rx="18.47" ry="18.24"/><ellipse class="cls-3" cx="20.44" cy="18.24" rx="13.63" ry="13.46"/><path class="cls-4" d="M2.75,14.32a1.3,1.3,0,0,0,1.59-.91A1.24,1.24,0,0,0,3.81,12a17.86,17.86,0,0,1,33.26,0,1.24,1.24,0,0,0-.53,1.38,1.31,1.31,0,0,0,1.59.91,1.28,1.28,0,0,0-.41-2.52,18.55,18.55,0,0,0-34.56,0,1.28,1.28,0,0,0-.41,2.52Z"/><path class="cls-5" d="M38.1,22.29a1.3,1.3,0,0,0-1.6.89A1.27,1.27,0,0,0,37,24.57,17.66,17.66,0,0,1,20.44,35.79,17.66,17.66,0,0,1,3.86,24.57a1.27,1.27,0,0,0,.52-1.39,1.3,1.3,0,0,0-1.59-.89,1.28,1.28,0,0,0-.91,1.57,1.31,1.31,0,0,0,1.33.94A18.34,18.34,0,0,0,20.44,36.47,18.34,18.34,0,0,0,37.67,24.8,1.31,1.31,0,0,0,39,23.86,1.27,1.27,0,0,0,38.1,22.29Z"/><path class="cls-6" d="M16.56,22.75a3,3,0,0,1-2.62-1.18,5.15,5.15,0,0,1-.87-3.14,5.15,5.15,0,0,1,.87-3.14,3.06,3.06,0,0,1,2.62-1.18,3.08,3.08,0,0,1,2.63,1.18,5.15,5.15,0,0,1,.87,3.14,5.15,5.15,0,0,1-.87,3.14A3.05,3.05,0,0,1,16.56,22.75Zm-1.24-6.33a4.32,4.32,0,0,0-.4,2,4.35,4.35,0,0,0,.4,2,1.3,1.3,0,0,0,1.24.76,1.32,1.32,0,0,0,1.25-.76,4.35,4.35,0,0,0,.4-2,4.32,4.32,0,0,0-.4-2,1.33,1.33,0,0,0-1.25-.77A1.31,1.31,0,0,0,15.32,16.42Z"/><path class="cls-6" d="M24.54,15.71a1.51,1.51,0,0,0-1.22.52,2.64,2.64,0,0,0-.52,1.42,3,3,0,0,1,1.67-.5A2.67,2.67,0,0,1,27.24,20a2.61,2.61,0,0,1-.86,2,3.13,3.13,0,0,1-2.14.76,3.32,3.32,0,0,1-1.56-.34,2.47,2.47,0,0,1-1-.95,5.53,5.53,0,0,1-.73-3,6.47,6.47,0,0,1,.29-2A3.43,3.43,0,0,1,22,15.12a3.18,3.18,0,0,1,2.39-1,3.48,3.48,0,0,1,1.13.18,3.55,3.55,0,0,1,.83.35,6.4,6.4,0,0,1,.64.45l-.89,1.32-.21-.19a2.63,2.63,0,0,0-.55-.31A1.89,1.89,0,0,0,24.54,15.71Zm-.25,3a1.38,1.38,0,0,0-.94.33,1.07,1.07,0,0,0-.38.86,1.25,1.25,0,0,0,.36.9,1.21,1.21,0,0,0,.91.38,1.29,1.29,0,0,0,.9-.34,1.1,1.1,0,0,0,.37-.87,1.27,1.27,0,0,0-.33-.89A1.15,1.15,0,0,0,24.29,18.72Z"/></g></g></g></svg>