<svg xmlns="http://www.w3.org/2000/svg" xmlns:xlink="http://www.w3.org/1999/xlink" viewBox="0 0 38.35 37.89"><defs><style>.cls-1{isolation:isolate;}.cls-2{mix-blend-mode:color-burn;fill:url(#radial-gradient);}.cls-3{fill:#fff;}.cls-4{fill:url(#linear-gradient);}.cls-5{fill:url(#linear-gradient-2);}.cls-6{fill:#e73438;}</style><radialGradient id="radial-gradient" cx="18.13" cy="19.77" r="18.13" gradientUnits="userSpaceOnUse"><stop offset="0.53" stop-color="#386eb5"/><stop offset="0.6" stop-color="#6d94c9"/><stop offset="0.67" stop-color="#99b5d9"/><stop offset="0.73" stop-color="#bed0e7"/><stop offset="0.8" stop-color="#dae4f1"/><stop offset="0.87" stop-color="#eff3f9"/><stop offset="0.93" stop-color="#fbfcfd"/><stop offset="1" stop-color="#fff"/></radialGradient><linearGradient id="linear-gradient" x1="5.65" y1="31.12" x2="28.08" y2="2.56" gradientUnits="userSpaceOnUse"><stop offset="0" stop-color="#cd1417"/><stop offset="1" stop-color="#e7363b"/></linearGradient><linearGradient id="linear-gradient-2" x1="10.91" y1="35.24" x2="33.33" y2="6.68" xlink:href="#linear-gradient"/></defs><g class="cls-1"><g id="Capa_2" data-name="Capa 2"><g id="Capa_1-2" data-name="Capa 1"><circle class="cls-2" cx="18.13" cy="19.77" r="18.13"/><circle class="cls-3" cx="20.06" cy="18.12" r="13.38" transform="translate(-6.94 19.49) rotate(-45)"/><path class="cls-4" d="M2.7,14.23a1.27,1.27,0,0,0,1.56-.9A1.26,1.26,0,0,0,3.74,12a17.44,17.44,0,0,1,32.63,0,1.26,1.26,0,1,0,.64-.22,18.12,18.12,0,0,0-33.91,0,1.27,1.27,0,0,0-.4,2.5Z"/><path class="cls-5" d="M37.38,22.15a1.27,1.27,0,0,0-1.57.89,1.29,1.29,0,0,0,.51,1.38,17.44,17.44,0,0,1-32.53,0,1.27,1.27,0,1,0-1.94-.71,1.26,1.26,0,0,0,1.3.93,18.11,18.11,0,0,0,33.81,0,1.27,1.27,0,0,0,.42-2.49Z"/><path class="cls-6" d="M17.6,22.61A3,3,0,0,1,15,21.44a5.17,5.17,0,0,1-.85-3.12A5.17,5.17,0,0,1,15,15.2,3,3,0,0,1,17.6,14a3,3,0,0,1,2.58,1.17A5.17,5.17,0,0,1,21,18.32a5.17,5.17,0,0,1-.85,3.12A3,3,0,0,1,17.6,22.61Zm-1.22-6.29a4.36,4.36,0,0,0-.4,2,4.4,4.4,0,0,0,.4,2,1.36,1.36,0,0,0,2.44,0,4.41,4.41,0,0,0,.39-2,4.36,4.36,0,0,0-.39-2,1.36,1.36,0,0,0-2.44,0Z"/><path class="cls-6" d="M21.59,14.22H25v8.29H23.17V15.8H21.59Z"/></g></g></g></svg>