<svg xmlns="http://www.w3.org/2000/svg" xmlns:xlink="http://www.w3.org/1999/xlink" viewBox="0 0 38.4 38.4"><defs><style>.cls-1{isolation:isolate;}.cls-2{mix-blend-mode:color-burn;fill:url(#radial-gradient);}.cls-3{fill:#fff;}.cls-4{fill:url(#linear-gradient);}.cls-5{fill:url(#linear-gradient-2);}.cls-6{fill:#9f9f9f;}</style><radialGradient id="radial-gradient" cx="26.29" cy="17.68" r="32.2" gradientTransform="translate(3.33 9.94) scale(0.56 0.57)" gradientUnits="userSpaceOnUse"><stop offset="0.53" stop-color="#386eb5"/><stop offset="0.6" stop-color="#6d94c9"/><stop offset="0.67" stop-color="#99b5d9"/><stop offset="0.73" stop-color="#bed0e7"/><stop offset="0.8" stop-color="#dae4f1"/><stop offset="0.87" stop-color="#eff3f9"/><stop offset="0.93" stop-color="#fbfcfd"/><stop offset="1" stop-color="#fff"/></radialGradient><linearGradient id="linear-gradient" x1="5.61" y1="31.34" x2="28.15" y2="2.64" gradientUnits="userSpaceOnUse"><stop offset="0" stop-color="#585858"/><stop offset="1" stop-color="#a6a6a6"/></linearGradient><linearGradient id="linear-gradient-2" x1="10.88" y1="35.65" x2="33.42" y2="6.95" xlink:href="#linear-gradient"/></defs><g class="cls-1"><g id="Capa_2" data-name="Capa 2"><g id="Capa_1-2" data-name="Capa 1"><ellipse class="cls-2" cx="18.15" cy="20.03" rx="18.15" ry="18.37"/><ellipse class="cls-3" cx="20.08" cy="18.37" rx="13.39" ry="13.56"/><path class="cls-4" d="M2.71,14.42a1.28,1.28,0,0,0,1.56-.91,1.31,1.31,0,0,0-.52-1.4A17.58,17.58,0,0,1,20.08.69,17.6,17.6,0,0,1,36.42,12.11a1.29,1.29,0,0,0,1,2.31,1.29,1.29,0,0,0,.9-1.58,1.27,1.27,0,0,0-1.3-.95A18.28,18.28,0,0,0,20.08,0a18.27,18.27,0,0,0-17,11.89,1.27,1.27,0,0,0-1.3.95A1.29,1.29,0,0,0,2.71,14.42Z"/><path class="cls-5" d="M37.43,22.45a1.27,1.27,0,0,0-1.57.89,1.31,1.31,0,0,0,.51,1.41,17.39,17.39,0,0,1-32.58,0,1.3,1.3,0,0,0,.51-1.41,1.27,1.27,0,0,0-1.56-.89A1.29,1.29,0,0,0,1.85,24a1.26,1.26,0,0,0,1.3.94A18.07,18.07,0,0,0,37,25a1.26,1.26,0,0,0,1.3-.94A1.29,1.29,0,0,0,37.43,22.45Z"/><path class="cls-6" d="M16.51,22.91a3,3,0,0,1-2.58-1.18,5.32,5.32,0,0,1-.86-3.17,5.28,5.28,0,0,1,.86-3.16,3,3,0,0,1,2.58-1.19,3,3,0,0,1,2.58,1.19,5.28,5.28,0,0,1,.85,3.16,5.31,5.31,0,0,1-.85,3.17A3,3,0,0,1,16.51,22.91Zm-1.23-6.37a4.5,4.5,0,0,0-.39,2,4.5,4.5,0,0,0,.39,2,1.36,1.36,0,0,0,2.45,0,4.5,4.5,0,0,0,.39-2,4.5,4.5,0,0,0-.39-2,1.36,1.36,0,0,0-2.45,0Z"/><path class="cls-6" d="M21,16v-1.6h5.09v1.3l-1.7,2a2.39,2.39,0,0,1,1.55.85,2.43,2.43,0,0,1,.54,1.57,2.56,2.56,0,0,1-.88,2.07,3.4,3.4,0,0,1-2.27.75,4.9,4.9,0,0,1-2.79-1l.76-1.5a3.72,3.72,0,0,0,2.1.85,1.53,1.53,0,0,0,.93-.28.94.94,0,0,0,.36-.8,1,1,0,0,0-.42-.83,1.94,1.94,0,0,0-1.15-.31,4.1,4.1,0,0,0-1.11.23V17.91l1.6-1.9Z"/></g></g></g></svg>