<svg xmlns="http://www.w3.org/2000/svg" xmlns:xlink="http://www.w3.org/1999/xlink" viewBox="0 0 38.4 38.4"><defs><style>.cls-1{isolation:isolate;}.cls-2{mix-blend-mode:color-burn;fill:url(#radial-gradient);}.cls-3{fill:#fff;}.cls-4{fill:url(#linear-gradient);}.cls-5{fill:url(#linear-gradient-2);}.cls-6{fill:#2075bb;}</style><radialGradient id="radial-gradient" cx="18.32" cy="19.33" r="18.09" gradientTransform="translate(-0.23 0.4) scale(1 1.02)" gradientUnits="userSpaceOnUse"><stop offset="0.53" stop-color="#386eb5"/><stop offset="0.6" stop-color="#6d94c9"/><stop offset="0.67" stop-color="#99b5d9"/><stop offset="0.73" stop-color="#bed0e7"/><stop offset="0.8" stop-color="#dae4f1"/><stop offset="0.87" stop-color="#eff3f9"/><stop offset="0.93" stop-color="#fbfcfd"/><stop offset="1" stop-color="#fff"/></radialGradient><linearGradient id="linear-gradient" x1="5.61" y1="31.34" x2="28.15" y2="2.64" gradientUnits="userSpaceOnUse"><stop offset="0" stop-color="#1e3a6d"/><stop offset="1" stop-color="#2779be"/></linearGradient><linearGradient id="linear-gradient-2" x1="10.88" y1="35.65" x2="33.42" y2="6.95" xlink:href="#linear-gradient"/></defs><g class="cls-1"><g id="Capa_2" data-name="Capa 2"><g id="Capa_1-2" data-name="Capa 1"><ellipse class="cls-2" cx="18.15" cy="20.03" rx="18.15" ry="18.37"/><ellipse class="cls-3" cx="20.08" cy="18.37" rx="13.39" ry="13.56"/><path class="cls-4" d="M2.71,14.42a1.28,1.28,0,0,0,1.56-.91,1.31,1.31,0,0,0-.52-1.4A17.58,17.58,0,0,1,20.08.69,17.6,17.6,0,0,1,36.42,12.11a1.29,1.29,0,0,0,1,2.31,1.29,1.29,0,0,0,.9-1.58,1.27,1.27,0,0,0-1.3-.95A18.28,18.28,0,0,0,20.08,0a18.27,18.27,0,0,0-17,11.89,1.27,1.27,0,0,0-1.3.95A1.29,1.29,0,0,0,2.71,14.42Z"/><path class="cls-5" d="M37.43,22.45a1.27,1.27,0,0,0-1.57.89,1.31,1.31,0,0,0,.51,1.41,17.39,17.39,0,0,1-32.58,0,1.3,1.3,0,0,0,.51-1.41,1.26,1.26,0,0,0-1.56-.89A1.29,1.29,0,0,0,1.85,24a1.26,1.26,0,0,0,1.3.94A18.07,18.07,0,0,0,37,25a1.26,1.26,0,0,0,1.3-.94A1.29,1.29,0,0,0,37.43,22.45Z"/><path class="cls-6" d="M16.42,22.91a3,3,0,0,1-2.58-1.18A5.31,5.31,0,0,1,13,18.56a5.28,5.28,0,0,1,.85-3.16,3,3,0,0,1,2.58-1.19A3,3,0,0,1,19,15.4a5.28,5.28,0,0,1,.86,3.16A5.32,5.32,0,0,1,19,21.73,3,3,0,0,1,16.42,22.91ZM15.2,16.54a4.5,4.5,0,0,0-.39,2,4.5,4.5,0,0,0,.39,2,1.28,1.28,0,0,0,1.22.77,1.29,1.29,0,0,0,1.23-.77,4.5,4.5,0,0,0,.39-2,4.5,4.5,0,0,0-.39-2,1.29,1.29,0,0,0-1.23-.77A1.28,1.28,0,0,0,15.2,16.54Z"/><path class="cls-6" d="M24.23,17.69a1.57,1.57,0,0,0,.31-.88,1,1,0,0,0-.27-.7.93.93,0,0,0-.7-.28c-.53,0-1,.37-1.49,1.13l-1.49-.89a4.83,4.83,0,0,1,1.28-1.39,3.15,3.15,0,0,1,1.77-.47,2.83,2.83,0,0,1,1.89.7,2.31,2.31,0,0,1,.82,1.88A2.5,2.5,0,0,1,26,18a8.08,8.08,0,0,1-1.21,1.53l-1.49,1.57H26.6v1.69H20.74v-1.4l2.43-2.53A9.82,9.82,0,0,0,24.23,17.69Z"/></g></g></g></svg>